<svg xmlns="http://www.w3.org/2000/svg" width="24" height="24" viewBox="0 0 24 24">
  <path id="Trazado_203" data-name="Trazado 203" d="M24,3.75c0,.844-.67,1.622-1.8,2.25a14.291,14.291,0,0,1-5.733,1.448c-.169-.08-.347-.159-.525-.234A18.547,18.547,0,0,0,9,6c-.389,0-.769.009-1.148.028L7.8,6C6.67,5.372,6,4.594,6,3.75,6,1.679,9.989,0,15,0c4.969,0,9,1.679,9,3.75ZM7.533,7.552C8.011,7.519,8.5,7.5,9,7.5a15.7,15.7,0,0,1,7.148,1.472C17.311,9.6,18,10.392,18,11.25a1.765,1.765,0,0,1-.1.548,3.6,3.6,0,0,1-1.641,1.669h0a.036.036,0,0,0-.019.009h0c-.014.009-.028.014-.042.023A15.626,15.626,0,0,1,9,15a16.1,16.1,0,0,1-6.945-1.364c-.088-.047-.173-.131-.255-.136C.669,12.872,0,12.094,0,11.25,0,9.619,2.5,8.227,6,7.716c.492-.075,1-.131,1.533-.164Zm10.838,1.2a15.776,15.776,0,0,0,3.572-.961A8.2,8.2,0,0,0,24,6.591V8.25c0,.9-.773,1.739-2.053,2.386a11.451,11.451,0,0,1-2.456.863c0-.08.009-.164.009-.248a3.539,3.539,0,0,0-1.13-2.5Zm-.37,7c0,.844-.67,1.622-1.8,2.25-.084,0-.169.089-.253.136A16.125,16.125,0,0,1,9,19.5,15.632,15.632,0,0,1,1.8,18C.669,17.372,0,16.594,0,15.75V14.091a8.159,8.159,0,0,0,2.059,1.2A18.541,18.541,0,0,0,9,16.5a18.547,18.547,0,0,0,6.942-1.214,9.463,9.463,0,0,0,1.05-.511,7.447,7.447,0,0,0,.806-.525c.07-.052.136-.108.2-.159Zm1.5-2.714a21.414,21.414,0,0,0,2.442-.75A8.2,8.2,0,0,0,24,11.091V12.75a2.072,2.072,0,0,1-.7,1.448A8.209,8.209,0,0,1,19.491,16c0-.08.009-.164.009-.248ZM9,21a18.547,18.547,0,0,0,6.942-1.214A8.2,8.2,0,0,0,18,18.591V20.25C18,22.322,13.969,24,9,24s-9-1.678-9-3.75V18.591a8.159,8.159,0,0,0,2.059,1.2A18.541,18.541,0,0,0,9,21Z" fill="#fff"/>
</svg>
