<?xml version="1.0" encoding="UTF-8"?><svg id="a" xmlns="http://www.w3.org/2000/svg" viewBox="0 0 767.46 768"><defs><style>.b{fill:#fff;}</style></defs><path class="b" d="M383.73,0c-61.94,0-120.44,14.31-172.24,39.71l-.69,38.44c51.48-26.99,110.37-42.32,172.93-42.32,201.84,0,365.47,159.44,365.47,356.11,0,61.72-16.12,119.76-44.47,170.37,20.55-44.72,32.02-94.48,32.02-146.91,0-194.73-158.05-352.6-353.02-352.6S30.72,220.67,30.72,415.4c0,52.43,11.46,102.19,32.02,146.91-28.35-50.61-44.47-108.65-44.47-170.37,0-87.65,32.5-167.9,86.39-229.94l-36.65-.62C25.13,221.76,0,295.03,0,374.03c0,98.18,38.82,187.53,102.3,254.26,64.46,84.89,166.54,139.71,281.43,139.71s216.97-54.83,281.43-139.71c63.48-66.73,102.3-156.07,102.3-254.26C767.46,167.46,595.66,0,383.73,0Z"/></svg>