<svg xmlns="http://www.w3.org/2000/svg" width="684.687" height="373.603" viewBox="0 0 684.687 373.603">
  <g id="main-task" transform="translate(0.001 0)">
    <path id="Trazado_324" data-name="Trazado 324" d="M618.75,692.323l-9.936-4.184L602,638.331H511.232l-7.388,49.6-8.889,4.444a2.111,2.111,0,0,0,.944,4H617.931a2.111,2.111,0,0,0,.819-4.056Z" transform="translate(-223.767 -323.296)" fill="#e6e6e6"/>
    <path id="Trazado_325" data-name="Trazado 325" d="M701.115,614.458H255.246a8.833,8.833,0,0,1-8.814-8.833V542.751h463.5v62.873a8.834,8.834,0,0,1-8.814,8.834Z" transform="translate(-144.834 -292.796)" fill="#ccc"/>
    <path id="Trazado_326" data-name="Trazado 326" d="M710.2,455.323H245.835V186.3a10.661,10.661,0,0,1,10.649-10.649H699.555A10.661,10.661,0,0,1,710.2,186.3Z" transform="translate(-144.644 -175.653)" fill="#162b3e"/>
    <path id="Trazado_327" data-name="Trazado 327" d="M691.625,204.328h-408.9a8.215,8.215,0,0,0-8.2,8.212v224.2a8.215,8.215,0,0,0,8.2,8.212h408.9a8.22,8.22,0,0,0,8.205-8.212V212.54A8.219,8.219,0,0,0,691.625,204.328Z" transform="translate(-153.796 -184.803)" fill="#fff"/>
    <path id="Trazado_328" data-name="Trazado 328" d="M355.2,204.328V444.949H282.721a8.215,8.215,0,0,1-8.2-8.212V212.54a8.215,8.215,0,0,1,8.2-8.212Z" transform="translate(-153.796 -184.803)" fill="#f0f0f0"/>
    <path id="Trazado_329" data-name="Trazado 329" d="M292.778,382.782a5.724,5.724,0,0,0-6.988,5.31l-19.51,5.752,8.077,6.818,17.289-6.507a5.755,5.755,0,0,0,1.132-11.373Z" transform="translate(-151.168 -241.703)" fill="#ffb6b6"/>
    <path id="Trazado_330" data-name="Trazado 330" d="M185.615,427.477a8.138,8.138,0,0,1-2.593-15.848l39.535-13.346L253.4,387.048l3.785,13.247-27.225,17.939-42.64,9.063A8.183,8.183,0,0,1,185.615,427.477Z" transform="translate(-122.833 -243.11)" fill="#fe9900"/>
    <path id="Trazado_331" data-name="Trazado 331" d="M128.54,528.758h5.551l2.641-21.411h-8.193Z" transform="translate(-41.018 -161.897)" fill="#ffb6b6"/>
    <path id="Trazado_332" data-name="Trazado 332" d="M223.68,711.783h10.932a6.967,6.967,0,0,1,6.966,6.966v.227h-17.9Z" transform="translate(-137.574 -346.735)" fill="#162b3e"/>
    <path id="Trazado_333" data-name="Trazado 333" d="M66.033,528.758h5.551l2.641-21.411H66.032Z" transform="translate(-21.072 -161.897)" fill="#ffb6b6"/>
    <path id="Trazado_334" data-name="Trazado 334" d="M161.172,711.783H172.1a6.967,6.967,0,0,1,6.967,6.967v.226h-17.9Z" transform="translate(-117.627 -346.735)" fill="#162b3e"/>
    <path id="Trazado_335" data-name="Trazado 335" d="M161.686,525.829a29.813,29.813,0,0,0-1.585,18.758L158.516,650.8h12.191l6.826-58.408L188.852,553.9l12.225,29.883v62.282l11.772-.7,6.339-66.106-7.244-47.089Z" transform="translate(-116.78 -287.396)" fill="#162b3e"/>
    <path id="Trazado_336" data-name="Trazado 336" d="M207.027,400.439l-10.414-3.169-2.717-5.433H180.52l-3.376,5.886S163.56,402.7,163.107,426.7s-2.264,62.483-2.264,62.483l53.56,7.636Z" transform="translate(-117.522 -244.638)" fill="#fe9900"/>
    <path id="Trazado_337" data-name="Trazado 337" d="M244.852,526.484a5.724,5.724,0,0,0-3.742-7.939l-1.57-20.279-8.348,6.483,2.771,18.264a5.755,5.755,0,0,0,10.889,3.472Z" transform="translate(-139.971 -278.6)" fill="#ffb6b6"/>
    <path id="Trazado_338" data-name="Trazado 338" d="M224.763,485.886l-11.887-30.36V411.935a8.137,8.137,0,0,1,16.219-.943l4.834,41.446,4.578,32.5Z" transform="translate(-134.126 -248.455)" fill="#fe9900"/>
    <circle id="Elipse_23" data-name="Elipse 23" cx="13.368" cy="13.368" r="13.368" transform="translate(58.884 113.415)" fill="#ffb9b9"/>
    <path id="Trazado_339" data-name="Trazado 339" d="M194.786,348.574c-.625.8-1.483,1.528-1.621,2.536a12.894,12.894,0,0,0,.255,2.239,2.988,2.988,0,0,1-2.793,2.991,3.314,3.314,0,0,0-2.133-1.22,1.969,1.969,0,0,0-2.027,1.171c-.4,1.121.522,2.26.67,3.441a7.117,7.117,0,0,1-.417,2.564,21.6,21.6,0,0,1-1.023,4.05c-.594,1.263-1.916,2.35-3.283,2.07a3.3,3.3,0,0,1-2.25-2.478c-.322-1.129-.307-2.326-.54-3.477-.756-3.739-3.974-6.509-5.237-10.108-1.618-4.612.326-9.887,3.675-13.447a10.947,10.947,0,0,1,5.1-3.3c2.087-.531,4.294-.149,6.436-.377,2.291-.243,4.444-1.174,6.67-1.766s4.713-.814,6.736.286c1.411.768,2.433,2.091,3.748,3.014a7.863,7.863,0,0,0,5.166,1.383l-2.186.956a7.02,7.02,0,0,0,2.945,1.613,5.092,5.092,0,0,1-3.138,1.1,3.584,3.584,0,0,0,2.258,1.736,10.366,10.366,0,0,1-5.247,1.4c-.894-.086-1.749-.4-2.632-.567a15.473,15.473,0,0,0-5.7.373c-.987.189-2.2.371-2.7,1.32C195.108,346.872,195.425,347.753,194.786,348.574Z" transform="translate(-121.659 -225.854)" fill="#2f2e41"/>
    <path id="Trazado_370" data-name="Trazado 370" d="M21.326,0A21.326,21.326,0,1,1,0,21.326,21.326,21.326,0,0,1,21.326,0Z" transform="translate(139.737 118.51)" fill="#e86109"/>
    <path id="Trazado_340" data-name="Trazado 340" d="M243.346,199.974H231.83V188.458h-2.559v11.516H217.755v2.559h11.516v11.516h2.559V202.533h11.515Z" transform="translate(-69.487 -60.138)" fill="#fff"/>
    <path id="Trazado_341" data-name="Trazado 341" d="M599.312,245.661a2.483,2.483,0,0,0-2.481,2.48v41.533a2.483,2.483,0,0,0,2.481,2.481H766.745a2.483,2.483,0,0,0,2.48-2.481V248.141a2.483,2.483,0,0,0-2.48-2.48Z" transform="translate(-256.649 -197.993)" fill="#fff"/>
    <path id="Trazado_342" data-name="Trazado 342" d="M599.312,245.661a2.483,2.483,0,0,0-2.481,2.48v41.533a2.483,2.483,0,0,0,2.481,2.481H766.745a2.483,2.483,0,0,0,2.48-2.481V248.141a2.483,2.483,0,0,0-2.48-2.48Z" transform="translate(-256.649 -197.993)" fill="#e6e6e6"/>
    <path id="Trazado_343" data-name="Trazado 343" d="M600.93,290.673H767.743V249.759H600.93Z" transform="translate(-257.956 -199.3)" fill="#fff"/>
    <path id="Trazado_344" data-name="Trazado 344" d="M627.767,267.053a2.17,2.17,0,1,0,0,4.341H756.642a2.17,2.17,0,1,0,0-4.341Z" transform="translate(-265.828 -204.819)" fill="#e4e4e4"/>
    <path id="Trazado_345" data-name="Trazado 345" d="M627.767,286.178a2.17,2.17,0,0,0,0,4.341H756.642a2.17,2.17,0,1,0,.01-4.341H627.767Z" transform="translate(-265.828 -210.922)" fill="#e4e4e4"/>
    <path id="Trazado_346" data-name="Trazado 346" d="M428.311,349.161a2.483,2.483,0,0,0-2.481,2.481v41.533a2.483,2.483,0,0,0,2.481,2.481H595.745a2.483,2.483,0,0,0,2.481-2.481V351.642a2.483,2.483,0,0,0-2.481-2.481Z" transform="translate(-202.081 -231.02)" fill="#fff"/>
    <path id="Trazado_347" data-name="Trazado 347" d="M428.311,349.161a2.483,2.483,0,0,0-2.481,2.481v41.533a2.483,2.483,0,0,0,2.481,2.481H595.745a2.483,2.483,0,0,0,2.481-2.481V351.642a2.483,2.483,0,0,0-2.481-2.481Z" transform="translate(-202.081 -231.02)" fill="#e6e6e6"/>
    <path id="Trazado_348" data-name="Trazado 348" d="M429.93,394.173H596.743V353.259H429.93Z" transform="translate(-203.389 -232.328)" fill="#fff"/>
    <path id="Trazado_349" data-name="Trazado 349" d="M456.767,370.553a2.17,2.17,0,0,0,0,4.341H585.642a2.17,2.17,0,1,0,0-4.341Z" transform="translate(-211.261 -237.846)" fill="#e4e4e4"/>
    <path id="Trazado_350" data-name="Trazado 350" d="M456.767,389.678a2.17,2.17,0,0,0,0,4.341H585.642a2.17,2.17,0,1,0,.01-4.341H456.767Z" transform="translate(-211.261 -243.949)" fill="#e4e4e4"/>
    <path id="Trazado_351" data-name="Trazado 351" d="M726.512,503.241a5.131,5.131,0,0,0,4.361-6.549l14.839-10.6-8.843-3.405-12.735,10.587a5.159,5.159,0,0,0,2.379,9.967Z" transform="translate(-296.193 -273.629)" fill="#ffb7b7"/>
    <path id="Trazado_352" data-name="Trazado 352" d="M739,475.7,734.08,467.3l.1-.119,19.861-22.612,15.421-26.3,13.391,1.707.2,4.048-.04.06-21.275,31.981-.023.019Z" transform="translate(-300.446 -253.072)" fill="#fe9900"/>
    <path id="Trazado_353" data-name="Trazado 353" d="M735.229,522.224h-7.572l-3.6-29.21h11.177Z" transform="translate(-231.05 -157.324)" fill="#ffb7b7"/>
    <path id="Trazado_354" data-name="Trazado 354" d="M829.079,717.748H804.661v-.309a9.5,9.5,0,0,1,9.5-9.5h14.915Z" transform="translate(-322.968 -345.507)" fill="#162b3e"/>
    <path id="Trazado_355" data-name="Trazado 355" d="M641.3,521.019l-7.366-1.759,3.279-29.248,10.871,2.6Z" transform="translate(-202.291 -156.366)" fill="#ffb7b7"/>
    <path id="Trazado_356" data-name="Trazado 356" d="M731.091,716.128l-23.75-5.671.072-.3a9.5,9.5,0,0,1,11.451-7.037h0l14.506,3.464Z" transform="translate(-291.913 -343.887)" fill="#162b3e"/>
    <path id="Trazado_357" data-name="Trazado 357" d="M785.191,384.675V371.928a17.081,17.081,0,0,1,34.162,0v12.747a2.3,2.3,0,0,1-2.294,2.294H787.485A2.3,2.3,0,0,1,785.191,384.675Z" transform="translate(-316.755 -232.834)" fill="#2f2e41"/>
    <circle id="Elipse_25" data-name="Elipse 25" cx="12.523" cy="12.523" r="12.523" transform="translate(468.778 128.895)" fill="#ffb7b7"/>
    <path id="Trazado_358" data-name="Trazado 358" d="M779.256,375.1a13.527,13.527,0,0,1,13.512-13.512h2.549A13.527,13.527,0,0,1,808.829,375.1v.255h-5.388l-1.838-5.146-.367,5.146h-2.784l-.927-2.6-.185,2.6H779.256Z" transform="translate(-314.861 -234.985)" fill="#2f2e41"/>
    <path id="Trazado_359" data-name="Trazado 359" d="M798.545,457.528l-31.886-1.214-1.783-20.861c-1.375-3.818-1.4-7.1-.066-9.744a9.753,9.753,0,0,1,5.385-4.654l6.977-8.427a9.5,9.5,0,0,1,7.374-3.437l18.127.124c.437-.263,3.088-1.61,8.315.656,5.67,2.458,4.353,10.995,4.339,11.08l-.013.08-.062.053L803.194,431.34Z" transform="translate(-309.938 -250.013)" fill="#fe9900"/>
    <path id="Trazado_360" data-name="Trazado 360" d="M658.711,299.694l-15.083,27.5L632.194,452.3l12.92,3.946,22.869-97.865,26.541,95.088,15.487.387L699.466,344.122l-9.215-42.485Z" transform="translate(-201.737 -95.634)" fill="#162b3e"/>
    <path id="Trazado_361" data-name="Trazado 361" d="M617.472,445.353a2.483,2.483,0,0,0-3.125,1.595l-12.808,39.509a2.483,2.483,0,0,0,1.595,3.125l159.274,51.631a2.483,2.483,0,0,0,3.125-1.6l12.807-39.509a2.483,2.483,0,0,0-1.595-3.125Z" transform="translate(-258.112 -261.677)" fill="#fff"/>
    <path id="Trazado_362" data-name="Trazado 362" d="M617.472,445.353a2.483,2.483,0,0,0-3.125,1.595l-12.808,39.509a2.483,2.483,0,0,0,1.595,3.125l159.274,51.631a2.483,2.483,0,0,0,3.125-1.6l12.807-39.509a2.483,2.483,0,0,0-1.595-3.125Z" transform="translate(-258.112 -261.677)" fill="#e6e6e6"/>
    <path id="Trazado_363" data-name="Trazado 363" d="M605.635,488.369l158.684,51.44,12.616-38.919L618.251,449.45Z" transform="translate(-259.458 -263.023)" fill="#fff"/>
    <path id="Trazado_364" data-name="Trazado 364" d="M644,474.44a2.17,2.17,0,0,0-1.339,4.129l122.595,39.741a2.17,2.17,0,1,0,1.34-4.129h0Z" transform="translate(-270.793 -270.963)" fill="#162b3e"/>
    <path id="Trazado_365" data-name="Trazado 365" d="M638.1,492.633a2.17,2.17,0,0,0-1.339,4.129L759.355,536.5a2.17,2.17,0,1,0,1.348-4.126l-.009,0Z" transform="translate(-268.911 -276.769)" fill="#162b3e"/>
    <path id="Trazado_366" data-name="Trazado 366" d="M823.494,528.954a5.131,5.131,0,0,0-.27-7.864l5.888-17.259-9.172,2.383-4.186,16.024a5.159,5.159,0,0,0,7.739,6.716Z" transform="translate(-326.224 -280.376)" fill="#ffb7b7"/>
    <path id="Trazado_367" data-name="Trazado 367" d="M827.232,492.145l-8.9-3.967,2.99-30.106-2.782-30.358L830.42,421.3l2.518,3.175,0,.072,1.334,38.388-.007.029Z" transform="translate(-327.331 -254.04)" fill="#fe9900"/>
    <path id="Trazado_368" data-name="Trazado 368" d="M882.66,723.372H417.3a1.067,1.067,0,0,1-1.048-.772,1.041,1.041,0,0,1,1.006-1.307H882.575a1.1,1.1,0,0,1,1.1.813,1.041,1.041,0,0,1-1.016,1.266Z" transform="translate(-199.015 -349.77)" fill="#ccc"/>
    <path id="Trazado_369" data-name="Trazado 369" d="M253.849,723.372H98.3a1.067,1.067,0,0,1-1.048-.772,1.041,1.041,0,0,1,1.006-1.307H253.764a1.1,1.1,0,0,1,1.1.813,1.04,1.04,0,0,1-1.015,1.266Z" transform="translate(-97.219 -349.77)" fill="#ccc"/>
  </g>
</svg>
