<svg xmlns="http://www.w3.org/2000/svg" width="267.191" height="245.972" viewBox="0 0 267.191 245.972">
  <g id="bg-phone" transform="translate(-948.782 -3343.86)">
    <circle id="Elipse_59" data-name="Elipse 59" cx="93.5" cy="93.5" r="93.5" transform="translate(979 3381)" fill="#fe9900"/>
    <path id="Trazado_387" data-name="Trazado 387" d="M394.4,479.216a71,71,0,0,1-11.281-.993c-21.155-3.43-48.557-15.353-77.158-33.573s-54.985-40.562-74.291-62.907c-9.4-10.886-16.622-21.189-21.453-30.626-5.114-9.99-7.351-18.7-6.649-25.881,1.368-13.994,13.48-17.055,23.4-17.159l0,2.035c-13.623.143-21.66,5.689-22.63,15.617-1.236,12.645,8.845,32.385,27.658,54.161,19.263,22.3,45.6,44.595,74.155,62.786s55.907,30.094,77.016,33.516c20.614,3.343,33.146-1.993,34.383-14.638,1.026-10.5-5.739-25.964-19.049-43.549l.366-1.807c9.671,12.777,20.9,31.1,19.456,45.849-.7,7.183-4.279,12.187-10.633,14.871A34.217,34.217,0,0,1,394.4,479.216Z" transform="translate(634.207 3241.491) rotate(-25)" fill="#fe9900"/>
  </g>
</svg>
