<svg xmlns="http://www.w3.org/2000/svg" width="22.124" height="19.37" viewBox="0 0 22.124 19.37">
  <path id="location-icon" d="M15.671,4.609c0,2.1-2.808,5.835-4.041,7.34a.685.685,0,0,1-1.137,0c-1.233-1.506-4.041-5.243-4.041-7.34a4.609,4.609,0,1,1,9.219,0ZM11.062,5.838A1.536,1.536,0,1,0,9.526,4.3,1.536,1.536,0,0,0,11.062,5.838Zm5.285,1.068c.019-.046.038-.092.058-.142l4.456-1.782a.921.921,0,0,1,1.264.857v10.4a.927.927,0,0,1-.58.857L15.979,19.32V7.7C16.113,7.432,16.236,7.171,16.348,6.906Zm-10.571,0c.111.265.234.526.369.791v9.656L1.264,19.309A.936.936,0,0,1,0,18.452V8.051a.892.892,0,0,1,.58-.857L5.285,5.312a7.438,7.438,0,0,0,.492,1.594Zm6.814,5.812A32.407,32.407,0,0,0,14.75,9.795V19.37L7.375,17.262V9.795a32.407,32.407,0,0,0,2.159,2.923,1.912,1.912,0,0,0,3.057,0Z" fill="#fff"/>
</svg>
