<svg xmlns="http://www.w3.org/2000/svg" width="15.128" height="15.128" viewBox="0 0 15.128 15.128">
  <path id="mail-icon" d="M7.564,12.322a2.192,2.192,0,0,1-1.385-.447L0,7.412v6.3a1.419,1.419,0,0,0,1.418,1.418H13.71a1.413,1.413,0,0,0,1.418-1.392V7.412L8.95,11.876A2.388,2.388,0,0,1,7.564,12.322Zm7.02-7.508c-.26-.207-.508-.4-.875-.677v-1.3a1.419,1.419,0,0,0-1.418-1.418H10c-.092-.066-.174-.126-.27-.192C9.236.859,8.252-.013,7.564,0,6.879-.013,5.892.859,5.4,1.225c-.1.066-.177.126-.27.192H2.836A1.419,1.419,0,0,0,1.418,2.835v1.3c-.365.277-.613.469-.875.676A1.411,1.411,0,0,0,0,5.931v.314l2.836,2.05V2.835h9.455V8.292l2.836-2.05V5.931A1.405,1.405,0,0,0,14.584,4.814ZM5.2,7.536H9.928A.468.468,0,0,0,10.4,7.09a.473.473,0,0,0-.473-.473H5.2a.473.473,0,0,0-.473.473A.452.452,0,0,0,5.2,7.536Zm0-1.891H9.928a.473.473,0,0,0,.473-.473.451.451,0,0,0-.473-.446H5.2a.468.468,0,0,0-.473.446A.458.458,0,0,0,5.2,5.645Z" transform="translate(0 0.002)" fill="#fff"/>
</svg>
