<svg xmlns="http://www.w3.org/2000/svg" width="20.049" height="20.049" viewBox="0 0 20.049 20.049">
  <path id="whatsapp-icon" d="M17.046,34.913A9.938,9.938,0,0,0,1.41,46.9L0,52.049l5.267-1.383a9.9,9.9,0,0,0,4.748,1.208h0a9.872,9.872,0,0,0,7.026-16.961ZM10.02,50.2a8.243,8.243,0,0,1-4.207-1.15l-.3-.179-3.124.819.832-3.048-.2-.313a8.274,8.274,0,1,1,15.346-4.39A8.35,8.35,0,0,1,10.02,50.2Zm4.529-6.185c-.246-.125-1.468-.725-1.7-.806s-.394-.125-.559.125-.64.806-.788.976-.291.188-.537.063A6.757,6.757,0,0,1,7.59,41.42c-.255-.439.255-.407.729-1.356A.46.46,0,0,0,8.3,39.63c-.063-.125-.559-1.347-.765-1.844s-.407-.416-.559-.425-.309-.009-.474-.009a.92.92,0,0,0-.662.309,2.79,2.79,0,0,0-.868,2.072A4.863,4.863,0,0,0,5.979,42.3a11.093,11.093,0,0,0,4.243,3.75,4.858,4.858,0,0,0,2.981.622,2.543,2.543,0,0,0,1.674-1.181,2.076,2.076,0,0,0,.143-1.181C14.961,44.2,14.8,44.137,14.549,44.016Z" transform="translate(0 -32)" fill="#fff"/>
</svg>
