<svg xmlns="http://www.w3.org/2000/svg" width="624.2" height="412.061" viewBox="0 0 624.2 412.061">
  <g id="world" transform="translate(-9.046 -32.246)">
    <path id="Trazado_248" data-name="Trazado 248" d="M668.891,272.115a7.726,7.726,0,0,1,4.924,10.776l11.808,13.127L679.4,305.14l-16.414-18.773a7.768,7.768,0,0,1,5.91-14.252Z" transform="translate(-298.53 -193.079)" fill="#ffb6b6"/>
    <path id="Trazado_249" data-name="Trazado 249" d="M781.8,309.069h0a15.449,15.449,0,0,0-21.3-5.047l-38.832,24.051-41.888-35.607-10.422,9.7,46.275,60.039,60.143-31.354C774.371,331.587,783.492,311.829,781.8,309.069Z" transform="translate(-300.894 -197.798)" fill="#fe9900"/>
    <path id="Trazado_250" data-name="Trazado 250" d="M628.845,374.382a145.982,145.982,0,1,1-17.256-68.9,144.09,144.09,0,0,1,8.072,17.824c.316.852.625,1.7.925,2.564v.008q2.008,5.671,3.537,11.553A146.044,146.044,0,0,1,628.845,374.382Z" transform="translate(-224.871 -183.141)" fill="#162b3e"/>
    <path id="Trazado_251" data-name="Trazado 251" d="M488.371,288.183a49,49,0,0,0-43.015-1.76c-6.014,2.617-12.347,7.313-14.353,15.792,8.115-4.789,18.619,2.778,20.707,14.916l-.487.134c-1.1,8.407,1.359,17.561,6.126,22.774.626-5.415,4.186-9.1,7.688-11.4s7.376-3.974,10.049-7.932c3.169-4.691,3.974-11.547,5.232-17.8S483.965,289.926,488.371,288.183Z" transform="translate(-246.41 -195.47)" fill="#fff"/>
    <path id="Trazado_252" data-name="Trazado 252" d="M423.617,358.7c-2.247,3.375-5.249,5.493-7.943,8.129a18.284,18.284,0,0,0-5.776,10.8c-.341,2.937.187,5.922.113,8.892s-1.063,6.312-3.083,7.05c-3.188,1.152-5.622-4.77-8.9-5.184-2.6-.325-4.949,3.773-4.194,7.326s4.3,5.127,6.336,2.807c1.842,3.091.544,8.7-2.223,9.647-.292,1.947-.584,3.886-.868,5.833-6.993-4.892-14.06-9.865-20.007-17.029a51.69,51.69,0,0,1-11.78-27.844c-.771-8.235.373-17.654-3.407-23.99-3.026-5.071-8.219-6.19-12.892-5.874-.852.057-1.712.154-2.564.26a144.439,144.439,0,0,1,10.458-23.934,10.245,10.245,0,0,0,2.62-1.631c4.349-3.691,6.28-11.163,9.809-16.332q.341-.5.706-.973c3.61-4.714,8.446-7.14,13.119-9.395,10.344-5.022,20.988-10.109,31.909-9.411l-3.107.3q-5.44,15.236-10.888,30.473-.828,2.336-1.671,4.681c-2.061,5.776-4.186,11.926-3.87,18.392.187,3.829,1.517,7.918,4.048,9.233,2.361,1.217,4.941-.276,7.221-1.752.966-.617,1.923-1.233,2.888-1.858,3.464-2.231,7.3-4.519,10.961-3.026,3.351,1.363,5.825,5.914,6.3,10.823a21.638,21.638,0,0,1-3.31,13.589Z" transform="translate(-227.078 -194.44)" fill="#fff"/>
    <path id="Trazado_253" data-name="Trazado 253" d="M461.859,466.9l-30.353-18.689.172-.442c-6.291,2.4-8.9,13.578-7.863,22.723s4.565,17.319,6.346,26.23a69.622,69.622,0,0,1-2.625,36.532,299.185,299.185,0,0,0,35.146-48.43,25.906,25.906,0,0,0,3.179-7.049c.643-2.655.544-5.847-.743-7.976A8.88,8.88,0,0,0,461.859,466.9Z" transform="translate(-244.716 -233.298)" fill="#fff"/>
    <path id="Trazado_254" data-name="Trazado 254" d="M421.12,323.306a11.188,11.188,0,0,0-.513,8.136c1,2.553,3.1,3.706,5.039,4.667l5.591,2.771c1.86.922,3.865,1.853,5.761,1.094,2.287-.915,3.872-4.5,3.462-7.828-.437-3.542-2.669-5.978-4.734-8.053l-8.668-8.71-1.628,1.994a21.747,21.747,0,0,0-4.309,5.928Z" transform="translate(-243.908 -203.036)" fill="#fff"/>
    <path id="Trazado_255" data-name="Trazado 255" d="M638.665,356.123l7.545,1.777c-.438,8.494-4.649,16.356-10.3,19.2-2.353,1.185-4.973,1.623-6.92,3.838-1.76,2.012-2.653,5.144-3.472,8.137l-4.308,15.674c-1.541,5.63-3.521,11.886-7.529,13.914-3.44,1.744-7.375-.389-10.02-3.967s-4.259-8.389-5.825-13.078c.1,5.111-2.28,10.125-5.647,11.9s-7.48.17-9.736-3.8c-1.623-2.848-2.3-6.6-3.886-9.492s-4.925-4.543-6.661-1.834c-1.144,1.8-1,4.56-1.566,6.847-.884,3.553-3.562,5.784-6.215,5.979s-5.225-1.331-7.44-3.4c-4.568-4.284-7.935-11.082-9.241-18.636a22.23,22.23,0,0,1,.26-10.19c1-3.156,3.407-5.59,5.8-4.989,1.574-3.326-1.533-7.74-4.332-7.35s-5.006,3.4-7.31,5.712-5.509,3.992-7.821,1.7a3.173,3.173,0,0,1-3.221,3.367c-1.493-.17-2.823-1.371-4.194-2.223-5.3-3.3-12.024-1.111-15.788,5.135,2.353-10.011,5.8-21.5,13.03-23.852,2.953-.965,6.174-.17,8.965-1.842,4.941-2.961,5.939-14.149,1.671-18.765.544,4.365.438,9.46-1.866,12.445s-7.139,1.038-6.847-3.375c-.665,3.042-3.975,3.5-5.5,1.168s-1.4-6.158-.317-8.949a21.08,21.08,0,0,1,4.73-6.718c3.854-4.13,7.764-8.308,12.226-10.9s9.63-3.472,14.109-.892c2.361,1.363,4.438,3.635,6.848,4.835s5.468,1.055,7.066-1.769c1.793-3.148.949-7.821,1.615-11.756,1.193-6.953,8.145-10.206,12-5.614-2.88-.738-5.858,2.669-6.215,6.8s1.72,8.3,4.511,9.549c4.689,2.077,9.281-3.148,12.827-7.983q5.549-7.594,11.115-15.18a18.35,18.35,0,0,1,1.988-2.418,6.4,6.4,0,0,1,8.738-.178c3.748,3.059,5.509,9.33,8.584,13.646,4.462,6.271,11.139,7.8,17.354,9.014q6.949,1.351,13.906,2.718a144.071,144.071,0,0,1,8.072,17.824C651.6,341.487,644.352,347.726,638.665,356.123Z" transform="translate(-264.66 -197.991)" fill="#fff"/>
    <path id="Trazado_256" data-name="Trazado 256" d="M686.04,498.845a145.446,145.446,0,0,1-12.089,20.226c-2.921-1.249-6.06.982-8.794,3.075-2.856,2.191-6.288,4.324-9.216,2.328-2.994-2.045-3.959-7.764-3.01-12.3s3.318-8.129,5.614-11.553c2.434-3.635,5.038-7.407,8.421-8.819s7.748.584,8.738,5.4l2.4-.081c-1.347-1.85-.641-5.679,1.168-6.353,2.085-.787,3.894,2.077,5.127,4.608C684.953,496.524,685.513,497.677,686.04,498.845Z" transform="translate(-297.059 -243.097)" fill="#fff"/>
    <path id="Trazado_257" data-name="Trazado 257" d="M558.679,445.133c-5.162.325-9.25-6.03-11.967-12.281s-5.2-13.4-9.854-16.582c-2.661-1.818-5.7-2.068-8.582-2.949a10.626,10.626,0,0,1-7.288-6.417l-3.274-1.323c-4.324,2.432-8.706,4.907-12.432,8.864a27.785,27.785,0,0,0-7.408,16.195c-.625,6.554,1.684,13.862,6,16.324,3.41,1.945,7.38.719,10.835,2.5,4.316,2.225,6.878,8.689,7.848,15.071s.724,13.015,1.418,19.469,2.606,13.171,6.564,16.478c4.953,4.139,12.22.7,14.442-6.835,1.09-3.7,1.052-7.866,1.868-11.7,1.436-6.756,5.31-11.769,8.382-17.311S560.723,451.565,558.679,445.133Z" transform="translate(-261.673 -223.654)" fill="#fff"/>
    <path id="Trazado_258" data-name="Trazado 258" d="M510.376,367.465a13.782,13.782,0,0,1,1.344,1.427,4.688,4.688,0,0,1-.083,4.841,4.5,4.5,0,0,0,3.225-1.639,20.742,20.742,0,0,0,2.473-3.484,3.8,3.8,0,0,0,.729-3.039c-.244-.7-.821-.993-1.225-1.516a10.3,10.3,0,0,1-1.131-3.286c-.716-2.459-2.432-4.267-4.295-4.526l.259.049a2.454,2.454,0,0,0-1.149,2.614c.157,1.012.807,1.853.743,2.885-.093,1.485-1.577,2.182-1.669,3.667A2.835,2.835,0,0,0,510.376,367.465Z" transform="translate(-264.376 -212.376)" fill="#fff"/>
    <path id="Trazado_259" data-name="Trazado 259" d="M499.142,337.942l.023,0a4.114,4.114,0,0,0,.44-.469Z" transform="translate(-261.986 -208.084)" fill="#e6e6e6"/>
    <path id="Trazado_260" data-name="Trazado 260" d="M498.734,345.034c1.141-.734,1.779-2.764,1.4-4.462s-1.7-2.823-2.926-2.512a2.983,2.983,0,0,1-2.773.816c-.757-.195-1.588-.7-2.244-.126a3.4,3.4,0,0,0-.764,1.493l-.729,2.237a1.413,1.413,0,0,0-.086.848.718.718,0,0,0,.551.438l4.373,1.289A3.768,3.768,0,0,0,498.734,345.034Z" transform="translate(-260.029 -208.208)" fill="#fff"/>
    <path id="Trazado_261" data-name="Trazado 261" d="M641.421,469.713,639.4,466.4a11.056,11.056,0,0,0-2.664-3.345,2.36,2.36,0,0,0-3.36.337l.082.63c1.536,1.927,3.161,4.068,3.55,6.927.154,1.127.1,2.294.235,3.427a4,4,0,0,0,1.248,2.795c1.061.709,2.307-.336,3.062-1.612a5.549,5.549,0,0,0,.86-3.532,6.2,6.2,0,0,0-.992-2.318Z" transform="translate(-292.669 -236.667)" fill="#fff"/>
    <path id="Trazado_262" data-name="Trazado 262" d="M680.572,414.25l.585-3.834a11.06,11.06,0,0,0,.116-4.274,2.36,2.36,0,0,0-2.788-1.906l-.343.535c-.066,2.463-.2,5.147-1.745,7.586-.608.961-1.4,1.82-2.027,2.773a4,4,0,0,0-.845,2.942c.355,1.226,1.981,1.228,3.38.739a5.549,5.549,0,0,0,2.932-2.149A6.192,6.192,0,0,0,680.572,414.25Z" transform="translate(-301.832 -223.336)" fill="#e6e6e6"/>
    <path id="Trazado_263" data-name="Trazado 263" d="M655.88,469.95c.329-.947-.146-2.033-.247-3.08a6.762,6.762,0,0,1,1.029-3.833,12.463,12.463,0,0,0,1.6-3.515,2.94,2.94,0,0,0-.077-1.721c-.223-.5-.763-.73-1.073-.333l.663.427a6.04,6.04,0,0,0-2.691.13,3.331,3.331,0,0,0-2.04,2.3,14.234,14.234,0,0,1-.535,2.386c-.4.813-1.161,1.084-1.642,1.8a4.3,4.3,0,0,0,.068,4.082,4.765,4.765,0,0,0,2.7,2.12C654.443,471,655.51,471.015,655.88,469.95Z" transform="translate(-296.558 -235.469)" fill="#fff"/>
    <path id="Trazado_264" data-name="Trazado 264" d="M679.982,479.139a9.256,9.256,0,0,0,1.166,2.141c.9.908,2.126.35,3.219.129a5.566,5.566,0,0,1,5.3,2.124,13.478,13.478,0,0,0-7.751-9.671,22.772,22.772,0,0,0-7.972-1.247l-.463.119C674.656,476.167,678.361,476.091,679.982,479.139Z" transform="translate(-301.836 -238.977)" fill="#fff"/>
    <path id="Trazado_265" data-name="Trazado 265" d="M578.558,490.1l.007.015.135-.259Z" transform="translate(-280.139 -242.919)" fill="#e6e6e6"/>
    <path id="Trazado_266" data-name="Trazado 266" d="M574.012,495.708a25.364,25.364,0,0,0-1.6,3.519,30.642,30.642,0,0,0-1.161,6.022c-.145,1.161-.19,2.643.537,3.208a1.031,1.031,0,0,0,1.349-.183,5.335,5.335,0,0,0,.978-1.454,33.5,33.5,0,0,0,3.3-7.837,13.637,13.637,0,0,0-.541-8.789Z" transform="translate(-278.448 -242.996)" fill="#fff"/>
    <path id="Trazado_267" data-name="Trazado 267" d="M538.692,302.95a3.251,3.251,0,0,0,3.5.684,11.57,11.57,0,0,0,3.3-2.178,7.755,7.755,0,0,0,2-2.18,4.422,4.422,0,0,0,.409-3.368,3.421,3.421,0,0,0-2.608-2.063l-4.854-1.439,1.17-1.055c-1.2-.646-2.536.553-3.289,2.038a10.971,10.971,0,0,0-1,3.074C536.919,298.793,537.313,301.568,538.692,302.95Z" transform="translate(-270.679 -197.501)" fill="#e6e6e6"/>
    <path id="Trazado_268" data-name="Trazado 268" d="M575.854,292.006a2.673,2.673,0,0,0,3.643.3,4.073,4.073,0,0,0,1.611-2.9c.115-1.273-.515-2.687-1.413-2.8l.206-1.192c-1.731-.313-3.862-.375-4.79,1.727A4.936,4.936,0,0,0,575.854,292.006Z" transform="translate(-279.274 -196.148)" fill="#e6e6e6"/>
    <path id="Trazado_269" data-name="Trazado 269" d="M558.513,211.792a38.513,38.513,0,0,0-42.588,33.954c-2.384,21.136,8.751,67.034,29.053,86.034,9.559-36.4,43.056-57.994,47.488-77.4C597.2,233.643,579.65,214.176,558.513,211.792Z" transform="translate(-265.749 -179.3)" fill="#fe9900"/>
    <circle id="b262ea8c-1946-46c9-a449-3a1996c39394" cx="12.56" cy="12.56" r="12.56" transform="translate(273.183 54.358)" fill="#fff"/>
    <circle id="bcc29a3a-8123-4529-80aa-6f70df2823cf" cx="8.227" cy="8.227" r="8.227" transform="translate(264.31 154.136)" fill="#fe9900"/>
    <path id="Trazado_270" data-name="Trazado 270" d="M571.765,244.385a12.56,12.56,0,1,1-12.938,21.532,12.559,12.559,0,0,0,9.187-23.029A12.56,12.56,0,0,1,571.765,244.385Z" transform="translate(-275.629 -186.465)" fill="#231f20" opacity="0.2"/>
    <path id="Trazado_271" data-name="Trazado 271" d="M599.662,254.786c-4.432,19.406-37.929,41-47.488,77.4a53.286,53.286,0,0,1-5.305-5.812c10.742-34.217,42.154-55.009,46.436-73.759,3.833-16.782-6.934-32.73-22.382-39.468C589.623,217.849,604,235.784,599.662,254.786Z" transform="translate(-272.895 -179.666)" fill="#231f20" opacity="0.2"/>
    <path id="Trazado_272" data-name="Trazado 272" d="M409.1,275.341a28.922,28.922,0,0,0-31.982,25.5c-1.79,15.873,6.572,50.341,21.818,64.609,7.179-27.337,32.334-43.551,35.662-58.125C438.152,291.751,424.969,277.132,409.1,275.341Z" transform="translate(-234.037 -193.841)" fill="#fe9900"/>
    <circle id="b262ea8c-1946-46c9-a449-3a1996c39394-2" data-name="b262ea8c-1946-46c9-a449-3a1996c39394" cx="9.432" cy="9.432" r="9.432" transform="translate(160.356 97.922)" fill="#fff"/>
    <circle id="bcc29a3a-8123-4529-80aa-6f70df2823cf-2" data-name="bcc29a3a-8123-4529-80aa-6f70df2823cf" cx="6.178" cy="6.178" r="6.178" transform="translate(153.692 172.852)" fill="#fe9900"/>
    <path id="Trazado_273" data-name="Trazado 273" d="M419.049,299.818a9.432,9.432,0,0,1-9.717,16.17,9.431,9.431,0,0,0,6.9-17.294,9.433,9.433,0,0,1,2.818,1.124Z" transform="translate(-241.456 -199.221)" fill="#231f20" opacity="0.2"/>
    <path id="Trazado_274" data-name="Trazado 274" d="M440,307.628c-3.328,14.573-28.484,30.788-35.662,58.125a40.018,40.018,0,0,1-3.984-4.365c8.067-25.7,31.656-41.31,34.872-55.39,2.878-12.6-5.207-24.579-16.808-29.639C432.459,279.89,443.257,293.358,440,307.628Z" transform="translate(-239.403 -194.116)" fill="#231f20" opacity="0.2"/>
    <path id="Trazado_275" data-name="Trazado 275" d="M609.534,552.217H599.178l-4.927-39.947h15.286Z" transform="translate(-139.164 -129.02)" fill="#ffb6b6"/>
    <path id="Trazado_276" data-name="Trazado 276" d="M798.048,736.206H790.7l-1.312-6.938-3.359,6.938H766.537a4.381,4.381,0,0,1-2.49-7.987l15.565-10.75v-7.014l16.371.977Z" transform="translate(-322.107 -293.344)" fill="#162b3e"/>
    <path id="Trazado_277" data-name="Trazado 277" d="M557.534,552.217H547.178l-4.927-39.947h15.286Z" transform="translate(-127.278 -129.02)" fill="#ffb6b6"/>
    <path id="Trazado_278" data-name="Trazado 278" d="M746.048,736.206H738.7l-1.312-6.938-3.359,6.938H714.538a4.381,4.381,0,0,1-2.49-7.987l15.565-10.75v-7.014l16.371.977Z" transform="translate(-310.22 -293.344)" fill="#162b3e"/>
    <path id="Trazado_279" data-name="Trazado 279" d="M698.269,549.25c1.982,2.972,23.543,84.7,23.543,84.7l19.118,2.18-2.269-20.562-3.468-36.388-5.371-24.288s18.967-43.166,20.166-46.6l.852-2.467,5.926,53.779a15.1,15.1,0,0,1,.9,6.005c-.178,3.359,3.191,53.9,3.191,53.9l1.62,18.124,16.38,2.275,6.646-31.36c5.549-10.187,2.368-46.386.1-49.756s-1.368-26.835-1.368-26.835c2.9-1.02,20.178-59.944,11.535-59.6.555-3.141.991-5.946.991-5.946l-15-12.1-37.547-9.761L734.737,440s-16.918,31.284-16.75,32.84a8.649,8.649,0,0,1-1.278,5.638l-17.082,57.168S696.268,546.247,698.269,549.25Z" transform="translate(-307.358 -231.521)" fill="#162b3e"/>
    <path id="Trazado_280" data-name="Trazado 280" d="M802.287,312.68,796.314,300l-20.33.781-6.631,13.194s-18.951,22.635-19.565,30c-.771,9.257,5.64,54.625-.771,51.685,0,0-15.115,17.742-6.171,17.742s49.4,25.4,52.058,28.254,14.506,4.708,13.512-1.255-6.128-38.211-6.128-38.211l13.9-50.707c4-10.948,5.245-23.228-3.8-30.581Z" transform="translate(-317.046 -199.519)" fill="#fe9900"/>
    <path id="Trazado_281" data-name="Trazado 281" d="M713.561,267.583a22.279,22.279,0,0,0-28.926,12.488c-4.54,11.436-5.292,38.747,3.156,52.434,10.862-18.868,32.838-25.835,38.258-35.995C731.841,285.654,725,272.122,713.561,267.583Z" transform="translate(-303.624 -191.749)" fill="#fe9900"/>
    <circle id="b262ea8c-1946-46c9-a449-3a1996c39394-3" data-name="b262ea8c-1946-46c9-a449-3a1996c39394" cx="7.266" cy="7.266" r="7.266" transform="translate(393.526 86.72)" fill="#fff"/>
    <circle id="bcc29a3a-8123-4529-80aa-6f70df2823cf-3" data-name="bcc29a3a-8123-4529-80aa-6f70df2823cf" cx="4.759" cy="4.759" r="4.759" transform="translate(374.172 140.498)" fill="#fe9900"/>
    <path id="Trazado_282" data-name="Trazado 282" d="M717.448,286.7a7.266,7.266,0,1,1-10.491,10.055,7.265,7.265,0,0,0,8.624-11.46,7.266,7.266,0,0,1,1.867,1.4Z" transform="translate(-309.489 -196.158)" fill="#231f20" opacity="0.2"/>
    <path id="Trazado_283" data-name="Trazado 283" d="M727.383,297.408c-5.42,10.16-27.4,17.127-38.258,36a30.826,30.826,0,0,1-2.079-4.05c11.191-17.469,31.881-24.306,37.118-34.122,4.687-8.786,1.1-19.322-6.5-25.428C727.387,275.265,732.691,287.459,727.383,297.408Z" transform="translate(-304.938 -192.617)" fill="#231f20" opacity="0.2"/>
    <path id="Trazado_284" data-name="Trazado 284" d="M678.294,355.873a7.727,7.727,0,0,1,9.284,7.361l16.484,6.327-1.4,10.955-23.153-9.262a7.768,7.768,0,0,1-1.213-15.381Z" transform="translate(-301.509 -212.255)" fill="#ffb6b6"/>
    <path id="Trazado_285" data-name="Trazado 285" d="M798.844,325.985h0a15.449,15.449,0,0,0-21.264,5.183L753.92,370.24l-53.495-12.681-4.874,13.38,68.506,32.45,34.7-55.262C803.948,340.827,806.491,330.654,798.844,325.985Z" transform="translate(-306.882 -204.942)" fill="#fe9900"/>
    <path id="Trazado_286" data-name="Trazado 286" d="M816.963,257.766a23.006,23.006,0,1,1-39.57-15.957l.111-.11c.184-.193.368-.387.561-.571a.01.01,0,0,0,.007,0,.009.009,0,0,0,0-.007c.239-.221.479-.442.727-.653a23,23,0,0,1,38.162,17.3Z" transform="translate(-324.117 -184.607)" fill="#2f2e41"/>
    <path id="Trazado_313" data-name="Trazado 313" d="M19.291,0A19.291,19.291,0,1,1,0,19.291,19.291,19.291,0,0,1,19.291,0Z" transform="translate(444.881 59.191)" fill="#ffb6b6"/>
    <path id="Trazado_287" data-name="Trazado 287" d="M806.781,269.748l-3.2-.565A8.913,8.913,0,0,1,796.407,262l-3.119,5.227-.136.045c-7.431,2.467-15.162,1.729-23.631-2.253a65.938,65.938,0,0,1-7.034-3.878l-.167-.1-.014-.2c-.432-6.276.976-11.518,3.966-14.763a11.893,11.893,0,0,1,8.974-3.741.739.739,0,0,0,.319-.176c.043-.032.086-.063.129-.093v-.032l.222-.1c.476-.224.961-.438,1.446-.634a21.753,21.753,0,0,1,22.717,4.4c5.942,5.673,8.668,15.193,6.782,23.691Z" transform="translate(-322.124 -185.765)" fill="#2f2e41"/>
    <path id="Trazado_288" data-name="Trazado 288" d="M857.939,280.359c-6.565-3.388,1.878-15.686.182-22.876s-13.914-9.5-14.692-16.849-2.609-14.924-7.457-20.5c-3.1-3.562-7.662-6.192-12.362-5.746a11.115,11.115,0,0,0-9.741,13.725,3.417,3.417,0,0,0-5.658.672,3.466,3.466,0,0,0,2.9,4.409c2.592,3.2,5.561,6.6,9.622,7.245a4.382,4.382,0,0,0,3.734-.862c.955-.918,1.03-2.752-.1-3.438,5.1,2.027,8.1,7.546,8.853,12.985s-.291,10.943-.981,16.391-.988,11.179,1.148,16.239c2.524,5.978,8.335,10.262,14.676,11.636A28.145,28.145,0,0,0,866.9,290.4a44.532,44.532,0,0,0,14.437-12.822C874.6,282.356,865.28,284.148,857.939,280.359Z" transform="translate(-332.591 -179.939)" fill="#2f2e41"/>
    <path id="Trazado_289" data-name="Trazado 289" d="M809.819,269.708a39.241,39.241,0,0,0-30.211-26.254c-.028-.009-.12-.046-.239-.1-.073-.046-.166-.092-.258-.138.276-.156.543-.294.819-.433a.009.009,0,0,0,.009-.009c.239-.221.479-.442.727-.653l.7.028S805.945,238.254,809.819,269.708Z" transform="translate(-325.983 -186.26)" fill="#fe9900"/>
    <path id="Trazado_290" data-name="Trazado 290" d="M604.06,212.357l-13.835,16.029-22.861-6.751,24.922,11.485Z" transform="translate(-133.018 -60.464)" opacity="0.2"/>
    <path id="Trazado_291" data-name="Trazado 291" d="M846.68,744.858l-212.717.237a.919.919,0,0,1,0-1.837l212.717-.237a.919.919,0,0,1,0,1.837Z" transform="translate(-292.594 -300.788)" fill="#cacaca"/>
    <path id="Trazado_292" data-name="Trazado 292" d="M757.814,502.693q-14.941,0-32.752-1.129c-61.415-3.9-140.967-17.459-224-38.179s-159.628-46.126-215.676-71.536c-27.3-12.379-48.257-24.1-62.28-34.827-14.848-11.361-21.342-21.263-19.3-29.432,3.971-15.913,39.135-19.395,67.934-19.513l.01,2.314c-39.549.162-62.881,6.47-65.7,17.759-3.588,14.379,25.678,36.828,80.294,61.591,55.924,25.355,132.378,50.712,215.281,71.4s162.306,34.222,223.587,38.114c59.845,3.8,96.229-2.266,99.817-16.646,2.979-11.939-16.661-29.526-55.3-49.523l1.064-2.055c28.077,14.53,60.668,35.37,56.484,52.139-2.038,8.168-12.424,13.858-30.868,16.911C785.89,501.821,772.976,502.693,757.814,502.693Z" transform="translate(-194.391 -201.366)" fill="#fe9900"/>
    <path id="Trazado_386" data-name="Trazado 386" d="M757.814,502.693q-14.941,0-32.752-1.129c-61.415-3.9-140.967-17.459-224-38.179s-159.628-46.126-215.676-71.536c-27.3-12.379-48.257-24.1-62.28-34.827-14.848-11.361-21.342-21.263-19.3-29.432,3.971-15.913,39.135-19.395,67.934-19.513l.01,2.314c-39.549.162-62.881,6.47-65.7,17.759-3.588,14.379,25.678,36.828,80.294,61.591,55.924,25.355,132.378,50.712,215.281,71.4s162.306,34.222,223.587,38.114c59.845,3.8,96.229-2.266,99.817-16.646,2.979-11.939-16.661-29.526-55.3-49.523l1.064-2.055c28.077,14.53,60.668,35.37,56.484,52.139-2.038,8.168-12.424,13.858-30.868,16.911C785.89,501.821,772.976,502.693,757.814,502.693Z" transform="translate(-194.391 -201.366)" fill="#fe9900"/>
  </g>
</svg>
